<?xml version="1.0" encoding="UTF-8"?>
<svg style="enable-background:new 0 0 66 64" version="1.1" viewBox="0 0 66 64" xml:space="preserve" xmlns="http://www.w3.org/2000/svg" xmlns:xlink="http://www.w3.org/1999/xlink" width="66px" height="64px">
	<path fill-rule="evenodd" fill="rgb(78, 78, 78)" d="M57.915,18.485 L56.607,16.579 L58.975,14.942 L44.380,5.056 L40.856,7.492 L39.548,5.585 L47.620,0.006 L48.928,1.912 L46.421,3.645 L61.016,13.532 L64.679,11.000 L65.987,12.905 L57.915,18.485 ZM53.470,21.476 C53.500,21.501 53.533,21.523 53.560,21.550 C53.603,21.594 53.637,21.644 53.672,21.693 C53.694,21.725 53.721,21.753 53.740,21.787 C53.772,21.844 53.793,21.905 53.816,21.966 C53.828,21.999 53.845,22.028 53.854,22.062 C53.880,22.158 53.894,22.258 53.894,22.361 L53.894,43.191 C53.894,43.612 53.667,43.999 53.299,44.203 L34.904,55.744 C34.895,55.750 34.884,55.752 34.874,55.758 C34.866,55.763 34.860,55.770 34.851,55.775 C34.800,55.803 34.746,55.819 34.692,55.839 C34.659,55.851 34.628,55.869 34.594,55.878 C34.495,55.905 34.394,55.920 34.293,55.920 C34.191,55.920 34.090,55.905 33.991,55.878 C33.957,55.869 33.926,55.851 33.893,55.838 C33.839,55.819 33.785,55.803 33.734,55.775 C33.725,55.770 33.719,55.763 33.711,55.758 C33.701,55.752 33.690,55.750 33.681,55.744 L15.233,44.172 C14.896,43.960 14.691,43.590 14.691,43.191 L14.691,22.361 C14.691,22.258 14.706,22.158 14.731,22.062 C14.740,22.027 14.758,21.997 14.770,21.964 C14.792,21.904 14.813,21.843 14.845,21.787 C14.864,21.753 14.891,21.725 14.913,21.693 C14.948,21.644 14.982,21.594 15.025,21.550 C15.052,21.523 15.085,21.501 15.116,21.476 C15.154,21.443 15.189,21.407 15.233,21.379 L33.681,9.807 C33.690,9.801 33.701,9.799 33.711,9.794 C33.719,9.789 33.725,9.781 33.734,9.777 C33.779,9.751 33.828,9.739 33.876,9.720 C33.917,9.704 33.955,9.684 33.997,9.673 C34.064,9.655 34.132,9.650 34.201,9.644 C34.232,9.642 34.262,9.631 34.293,9.631 C34.297,9.631 34.301,9.633 34.305,9.633 C34.380,9.634 34.454,9.649 34.528,9.664 C34.556,9.670 34.585,9.670 34.613,9.678 C34.714,9.707 34.812,9.750 34.904,9.807 L53.352,21.379 C53.396,21.407 53.431,21.443 53.470,21.476 ZM16.997,42.592 L18.020,43.191 L19.915,44.379 L19.915,44.379 L25.922,48.148 L31.445,51.611 L31.445,51.612 L33.139,52.675 L33.139,34.575 L30.222,32.744 L16.997,24.449 L16.997,42.592 ZM37.140,13.939 L35.446,12.876 L34.293,12.153 L31.445,13.939 L31.445,13.940 L18.020,22.361 L34.293,32.568 L50.565,22.361 L37.140,13.940 L37.140,13.939 ZM51.588,24.449 L35.446,34.575 L35.446,52.675 L50.565,43.191 L51.588,42.593 L51.588,24.449 ZM-0.010,41.835 L3.737,41.835 L3.737,24.477 L-0.010,24.477 L-0.010,22.162 L9.791,22.162 L9.791,24.477 L6.043,24.477 L6.043,41.835 L9.791,41.835 L9.791,44.150 L-0.010,44.150 L-0.010,41.835 ZM44.004,59.049 L58.599,49.163 L56.091,47.429 L57.399,45.523 L65.471,51.103 L64.163,53.009 L60.639,50.573 L46.044,60.459 L48.413,62.096 L47.105,64.002 L39.032,58.423 L40.341,56.517 L44.004,59.049 Z"/>
</svg>