<?xml version="1.0" encoding="UTF-8"?>
<svg style="enable-background:new 0 0 71 61" version="1.1" viewBox="0 0 71 61" xml:space="preserve" xmlns="http://www.w3.org/2000/svg" xmlns:xlink="http://www.w3.org/1999/xlink" width="71px" height="61px">
	<path fill-rule="evenodd" fill="rgb(78, 78, 78)" d="M0.344,60.970 L0.344,58.795 L16.823,58.795 L54.177,58.795 L70.656,58.795 L70.656,60.970 L0.344,60.970 ZM44.289,52.268 L26.711,52.268 L26.711,50.092 L44.289,50.092 L44.289,52.268 ZM46.486,51.180 C46.486,50.011 46.761,48.907 47.239,47.917 L23.761,47.917 C24.238,48.907 24.513,50.011 24.513,51.180 C24.513,55.378 21.064,58.795 16.823,58.795 C12.582,58.795 9.133,55.378 9.133,51.180 C9.133,50.011 9.408,48.907 9.885,47.917 L6.935,47.917 L6.935,45.741 L11.330,45.741 L11.330,45.861 C12.727,44.447 14.672,43.565 16.823,43.565 C18.974,43.565 20.919,44.447 22.316,45.861 L22.316,45.741 L48.683,45.741 L48.683,45.861 C50.080,44.447 52.025,43.565 54.177,43.565 C56.328,43.565 58.273,44.447 59.670,45.861 L59.670,45.741 L64.064,45.741 L64.064,47.917 L61.114,47.917 C61.592,48.907 61.867,50.011 61.867,51.180 C61.867,55.378 58.417,58.795 54.177,58.795 C49.936,58.795 46.486,55.378 46.486,51.180 ZM16.823,45.741 C13.794,45.741 11.330,48.181 11.330,51.180 C11.330,54.179 13.794,56.619 16.823,56.619 C19.852,56.619 22.316,54.179 22.316,51.180 C22.316,48.181 19.852,45.741 16.823,45.741 ZM54.177,56.619 C57.205,56.619 59.670,54.179 59.670,51.180 C59.670,48.181 57.205,45.741 54.177,45.741 C51.148,45.741 48.683,48.181 48.683,51.180 C48.683,54.179 51.148,56.619 54.177,56.619 ZM55.275,52.268 L53.078,52.268 L53.078,50.092 L55.275,50.092 L55.275,52.268 ZM15.724,50.092 L17.922,50.092 L17.922,52.268 L15.724,52.268 L15.724,50.092 ZM64.064,52.268 L64.064,50.092 L66.262,50.092 L66.262,13.108 L67.360,13.108 L68.459,13.108 L70.656,13.108 L70.656,15.283 L68.459,15.283 L68.459,50.092 L70.656,50.092 L70.656,52.268 L67.360,52.268 L64.064,52.268 ZM61.867,40.302 L64.064,40.302 L64.064,42.478 L61.867,42.478 L61.867,40.302 ZM50.881,42.478 L50.881,40.302 L53.078,40.302 L53.078,42.478 L50.881,42.478 ZM39.894,42.478 L39.894,40.302 L42.092,40.302 L42.092,42.478 L39.894,42.478 ZM28.908,42.478 L28.908,40.302 L31.105,40.302 L31.105,42.478 L28.908,42.478 ZM17.922,42.478 L17.922,40.302 L20.119,40.302 L20.119,42.478 L17.922,42.478 ZM6.935,34.863 L64.064,34.863 L64.064,37.039 L6.935,37.039 L6.935,34.863 ZM61.867,29.424 L64.064,29.424 L64.064,31.600 L61.867,31.600 L61.867,29.424 ZM50.881,31.600 L50.881,29.424 L53.078,29.424 L53.078,31.600 L50.881,31.600 ZM39.894,31.600 L39.894,29.424 L42.092,29.424 L42.092,31.600 L39.894,31.600 ZM28.908,31.600 L28.908,29.424 L31.105,29.424 L31.105,31.600 L28.908,31.600 ZM17.922,31.600 L17.922,29.424 L20.119,29.424 L20.119,31.600 L17.922,31.600 ZM6.935,23.985 L64.064,23.985 L64.064,26.161 L6.935,26.161 L6.935,23.985 ZM61.867,18.546 L64.064,18.546 L64.064,20.722 L61.867,20.722 L61.867,18.546 ZM50.881,20.722 L50.881,18.546 L53.078,18.546 L53.078,20.722 L50.881,20.722 ZM39.894,20.722 L39.894,18.546 L42.092,18.546 L42.092,20.722 L39.894,20.722 ZM28.908,20.722 L28.908,18.546 L31.105,18.546 L31.105,20.722 L28.908,20.722 ZM17.922,20.722 L17.922,18.546 L20.119,18.546 L20.119,20.722 L17.922,20.722 ZM8.034,15.283 L6.935,15.283 L6.935,13.108 L7.355,13.108 L9.249,9.358 C9.325,9.207 9.436,9.075 9.572,8.974 L13.966,5.711 C14.300,5.462 14.744,5.424 15.117,5.608 L16.606,6.345 L19.342,3.636 C19.676,3.305 20.187,3.221 20.610,3.432 L24.137,5.179 L25.797,2.714 C26.055,2.333 26.527,2.151 26.977,2.262 L30.864,3.224 L34.840,0.272 C35.174,0.023 35.618,-0.015 35.991,0.169 L39.894,2.101 L41.600,1.257 C41.819,1.149 42.069,1.117 42.307,1.163 L47.800,2.251 C48.013,2.293 48.208,2.397 48.362,2.548 L50.344,4.511 L54.049,5.428 L55.882,4.520 C56.306,4.310 56.817,4.393 57.151,4.724 L59.348,6.900 C59.554,7.103 59.670,7.380 59.670,7.669 L59.670,9.172 L61.260,9.959 C61.431,10.044 61.576,10.171 61.682,10.329 L63.554,13.108 L64.064,13.108 L64.064,15.283 L62.966,15.283 L8.034,15.283 ZM60.016,11.775 L58.080,10.817 C57.708,10.633 57.472,10.256 57.472,9.844 L57.472,8.119 L56.157,6.817 L54.668,7.553 C54.432,7.669 54.165,7.699 53.910,7.636 L49.515,6.548 C49.322,6.500 49.146,6.401 49.005,6.262 L48.580,5.841 L45.223,8.334 L44.232,11.276 L42.148,10.588 L43.247,7.324 C43.317,7.115 43.451,6.931 43.630,6.798 L46.984,4.307 L42.245,3.370 L40.386,4.290 C40.077,4.444 39.712,4.444 39.403,4.290 L35.616,2.415 L31.765,5.275 C31.500,5.472 31.160,5.542 30.839,5.460 L27.195,4.558 L25.428,7.184 C25.381,7.253 25.317,7.302 25.258,7.357 L26.291,8.891 L30.273,9.877 L29.740,11.987 L25.346,10.899 C25.080,10.834 24.850,10.673 24.698,10.447 L22.501,7.184 L22.833,6.965 L20.336,5.729 L17.600,8.438 C17.266,8.769 16.756,8.853 16.332,8.642 L14.742,7.855 L11.098,10.560 L9.812,13.108 L60.913,13.108 L60.016,11.775 ZM9.133,20.722 L6.935,20.722 L6.935,18.546 L9.133,18.546 L9.133,20.722 ZM9.133,31.600 L6.935,31.600 L6.935,29.424 L9.133,29.424 L9.133,31.600 ZM9.133,42.478 L6.935,42.478 L6.935,40.302 L9.133,40.302 L9.133,42.478 ZM6.935,52.268 L3.639,52.268 L0.344,52.268 L0.344,50.092 L2.541,50.092 L2.541,15.283 L0.344,15.283 L0.344,13.108 L2.541,13.108 L3.639,13.108 L4.738,13.108 L4.738,50.092 L6.935,50.092 L6.935,52.268 Z"/>
</svg>