<?xml version="1.0" encoding="UTF-8"?>
<svg style="enable-background:new 0 0 64 52" version="1.1" viewBox="0 0 64 52" xml:space="preserve" xmlns="http://www.w3.org/2000/svg" xmlns:xlink="http://www.w3.org/1999/xlink" width="64px" height="52px">
	<path fill-rule="evenodd" fill="rgb(78, 78, 78)" d="M64.000,30.999 C64.000,33.168 62.626,34.999 61.000,34.999 L55.000,34.999 L55.000,32.999 L61.000,32.999 C61.297,32.999 62.000,32.223 62.000,30.999 L62.000,29.579 L55.925,26.108 C55.069,26.679 54.076,27.000 53.000,27.000 C51.927,27.000 50.938,26.682 50.084,26.115 L45.514,28.857 L44.485,27.142 L48.591,24.679 C47.597,23.351 47.000,21.549 47.000,19.500 C47.000,16.473 47.682,12.999 53.000,12.999 C58.318,12.999 59.000,16.473 59.000,19.500 C59.000,21.540 58.408,23.335 57.422,24.660 L64.000,28.419 L64.000,30.999 ZM53.000,15.000 C49.972,15.000 49.000,16.093 49.000,19.500 C49.000,22.165 50.402,25.000 53.000,25.000 C55.598,25.000 57.000,22.165 57.000,19.500 C57.000,16.093 56.028,15.000 53.000,15.000 ZM38.000,23.463 L38.000,25.985 L38.473,25.906 L40.692,29.235 C42.434,30.207 44.168,30.873 45.848,31.511 C50.554,33.299 55.000,34.989 55.000,43.000 L55.000,51.999 L53.000,51.999 L53.000,43.000 C53.000,36.368 49.872,35.180 45.137,33.380 C43.610,32.800 41.902,32.136 40.186,31.227 L36.197,35.216 L32.000,33.118 L27.803,35.216 L23.814,31.227 C22.097,32.136 20.390,32.800 18.863,33.380 C14.128,35.180 11.000,36.368 11.000,43.000 L11.000,51.999 L9.000,51.999 L9.000,43.000 C9.000,34.989 13.446,33.299 18.152,31.511 C19.831,30.873 21.566,30.207 23.308,29.235 L25.526,25.906 L26.000,25.985 L26.000,23.463 C25.049,22.581 22.843,19.971 22.010,14.141 L22.000,13.999 L22.000,9.999 C22.000,3.364 25.364,-0.001 32.000,-0.001 C38.636,-0.001 42.000,3.364 42.000,9.999 L41.990,14.141 C41.157,19.971 38.951,22.581 38.000,23.463 ZM25.286,29.872 L28.197,32.783 L32.000,30.881 L35.803,32.783 L38.713,29.872 L37.526,28.092 L32.000,29.013 L26.474,28.092 L25.286,29.872 ZM36.000,26.319 L36.000,24.434 C34.091,24.982 32.105,25.000 32.000,25.000 C31.895,25.000 29.909,24.982 28.000,24.434 L28.000,26.319 L32.000,26.986 L36.000,26.319 ZM32.000,1.999 C27.064,1.999 24.582,3.980 24.101,8.331 L26.954,6.904 L36.954,10.904 L39.964,9.399 C39.779,4.310 37.318,1.999 32.000,1.999 ZM40.000,11.618 L37.045,13.095 L27.045,9.095 L24.000,10.618 L24.000,13.928 C24.861,19.845 27.201,21.888 27.519,22.140 C29.281,22.985 31.974,23.000 32.001,23.000 C32.026,23.000 34.718,22.985 36.479,22.141 C36.792,21.891 39.140,19.836 40.000,13.928 L40.000,11.618 ZM18.485,28.857 L13.915,26.115 C13.062,26.682 12.072,27.000 11.000,27.000 C9.923,27.000 8.931,26.679 8.075,26.108 L2.000,29.579 L2.000,30.999 C2.000,32.223 2.703,32.999 3.000,32.999 L9.000,32.999 L9.000,34.999 L3.000,34.999 C1.374,34.999 -0.000,33.168 -0.000,30.999 L-0.000,28.419 L6.578,24.660 C5.592,23.335 5.000,21.540 5.000,19.500 C5.000,16.473 5.682,12.999 11.000,12.999 C16.318,12.999 17.000,16.473 17.000,19.500 C17.000,21.549 16.403,23.351 15.409,24.679 L19.514,27.142 L18.485,28.857 ZM11.000,15.000 C7.972,15.000 7.000,16.093 7.000,19.500 C7.000,22.165 8.402,25.000 11.000,25.000 C13.598,25.000 15.000,22.165 15.000,19.500 C15.000,16.093 14.028,15.000 11.000,15.000 ZM19.000,51.999 L17.000,51.999 L17.000,44.000 L19.000,44.000 L19.000,51.999 ZM33.000,37.999 L31.000,37.999 L31.000,35.999 L33.000,35.999 L33.000,37.999 ZM33.000,42.000 L31.000,42.000 L31.000,40.000 L33.000,40.000 L33.000,42.000 ZM47.000,51.999 L45.000,51.999 L45.000,44.000 L47.000,44.000 L47.000,51.999 Z"/>
</svg>