<?xml version="1.0" encoding="UTF-8"?>
<svg style="enable-background:new 0 0 63 63" version="1.1" viewBox="0 0 63 63" xml:space="preserve" xmlns="http://www.w3.org/2000/svg" xmlns:xlink="http://www.w3.org/1999/xlink" width="63px" height="63px">
	<path fill-rule="evenodd" fill="rgb(201, 201, 201)" d="M62.935,52.000 C62.428,58.150 57.302,62.999 51.064,62.999 L5.367,62.999 L5.367,17.002 L9.839,17.002 L11.322,18.494 L1.522,8.630 C-0.028,7.070 -0.028,4.533 1.522,2.973 L2.927,1.559 C4.477,-0.001 6.997,-0.001 8.547,1.559 L23.889,17.002 L50.071,17.002 L50.071,7.126 L52.058,7.178 C58.167,7.689 62.986,12.848 62.986,19.127 L62.986,52.000 L62.935,52.000 ZM7.354,19.002 L7.354,60.999 L51.064,60.999 C54.196,60.999 56.990,59.529 58.812,57.243 L13.223,57.243 L13.223,55.243 L18.070,55.243 L18.070,49.813 L13.223,49.813 L13.223,47.813 L27.179,47.813 L19.742,40.328 L13.223,40.328 L13.223,38.328 L31.026,38.328 L28.775,36.063 L13.223,36.063 L13.223,34.063 L26.788,34.063 L17.886,25.101 L13.223,25.101 L13.223,23.101 L15.899,23.101 L11.826,19.002 L7.354,19.002 ZM51.064,55.243 L51.064,49.813 L44.589,49.813 L44.589,55.243 L51.064,55.243 ZM42.602,55.243 L42.602,49.813 L36.163,49.813 L36.163,55.243 L42.602,55.243 ZM28.087,49.813 L28.087,55.243 L34.176,55.243 L34.176,49.813 L28.087,49.813 ZM26.100,55.243 L26.100,49.813 L20.057,49.813 L20.057,55.243 L26.100,55.243 ZM36.646,41.157 L38.051,39.742 L9.249,10.751 L7.845,12.166 L36.646,41.157 ZM7.142,2.973 C6.368,2.194 5.107,2.194 4.332,2.973 L2.927,4.388 C2.153,5.167 2.153,6.437 2.927,7.216 L6.440,10.751 L10.654,6.509 L7.142,2.973 ZM12.059,7.923 L10.654,9.337 L39.456,38.328 L40.861,36.914 L12.059,7.923 ZM38.386,42.234 L44.589,44.910 L41.931,38.665 L38.386,42.234 ZM50.071,19.002 L25.876,19.002 L29.948,23.101 L50.071,23.101 L50.071,19.002 ZM50.071,25.101 L31.935,25.101 L40.838,34.063 L50.071,34.063 L50.071,25.101 ZM50.071,36.063 L42.825,36.063 L42.968,36.207 C43.057,36.297 43.129,36.403 43.179,36.520 L43.949,38.328 L50.071,38.328 L50.071,36.063 ZM51.064,41.000 L50.071,41.000 L50.071,40.328 L44.800,40.328 L47.394,46.419 C47.553,46.795 47.470,47.231 47.183,47.520 C46.895,47.810 46.463,47.893 46.089,47.732 L36.254,43.490 C36.138,43.440 36.033,43.368 35.943,43.278 L33.013,40.328 L22.552,40.328 L29.989,47.813 L60.473,47.813 C59.147,43.859 55.434,41.000 51.064,41.000 ZM60.999,19.127 C60.999,13.950 56.528,9.178 52.058,9.178 L52.058,39.050 C56.528,39.050 59.035,41.404 60.999,44.381 L60.999,19.127 ZM60.922,49.813 L53.051,49.813 L53.051,55.243 L60.047,55.243 C60.651,53.953 60.999,52.518 60.999,51.000 C60.999,50.598 60.968,50.203 60.922,49.813 Z"/>
	<path fill-rule="evenodd" fill="rgb(195, 37, 37)" d="M5.000,40.000 L28.000,40.000 L28.000,63.000 L5.000,63.000 L5.000,40.000 Z"/>
	<path fill-rule="evenodd" fill="rgb(255, 255, 255)" d="M11.581,49.086 L11.581,49.095 L13.110,49.095 L13.110,49.086 C13.110,47.672 14.235,46.600 15.720,46.600 C17.117,46.600 18.233,47.575 18.233,48.796 C18.233,49.851 17.829,50.527 16.124,52.320 L11.660,57.021 L11.660,58.110 L20.025,58.110 L20.025,56.705 L13.848,56.705 L13.848,56.669 L17.055,53.357 C19.173,51.169 19.814,50.114 19.814,48.700 C19.814,46.758 18.031,45.220 15.764,45.220 C13.374,45.220 11.581,46.872 11.581,49.086 Z"/>
</svg>