<?xml version="1.0" encoding="UTF-8"?>
<svg style="enable-background:new 0 0 64 52" version="1.1" viewBox="0 0 64 52" xml:space="preserve" xmlns="http://www.w3.org/2000/svg" xmlns:xlink="http://www.w3.org/1999/xlink" width="64px" height="52px">
	<path fill-rule="evenodd" fill="rgb(201, 201, 201)" d="M-0.000,51.999 L-0.000,49.999 L39.381,49.999 C36.142,47.848 34.000,44.171 34.000,40.000 C34.000,39.268 34.076,38.555 34.202,37.859 L21.000,34.304 L21.000,43.999 C21.000,45.102 21.897,45.999 23.000,45.999 L23.624,45.999 L31.341,39.247 L32.659,40.752 L24.659,47.752 C24.476,47.912 24.242,47.999 24.000,47.999 L23.000,47.999 C20.794,47.999 19.000,46.205 19.000,43.999 L19.000,33.310 L8.474,18.000 L-0.000,18.000 L-0.000,16.000 L9.000,16.000 C9.329,16.000 9.638,16.162 9.824,16.433 L20.615,32.130 L34.726,35.928 C36.399,31.313 40.814,28.000 46.000,28.000 C52.617,28.000 58.000,33.383 58.000,40.000 C58.000,44.171 55.858,47.848 52.619,49.999 L64.000,49.999 L64.000,51.999 L-0.000,51.999 ZM56.000,40.000 C56.000,34.485 51.514,30.000 46.000,30.000 C41.737,30.000 38.099,32.685 36.663,36.450 L40.563,37.500 C41.514,35.440 43.586,34.000 46.000,34.000 C49.309,34.000 52.000,36.691 52.000,40.000 C52.000,43.308 49.309,45.999 46.000,45.999 C42.691,45.999 40.000,43.308 40.000,40.000 C40.000,39.806 40.039,39.624 40.057,39.435 L36.143,38.381 C36.057,38.909 36.000,39.447 36.000,40.000 C36.000,45.513 40.486,49.999 46.000,49.999 C51.514,49.999 56.000,45.513 56.000,40.000 ZM46.000,42.000 C45.077,42.000 44.306,41.368 44.077,40.517 L42.004,39.959 C42.004,39.973 42.000,39.986 42.000,40.000 C42.000,42.205 43.794,43.999 46.000,43.999 C48.206,43.999 50.000,42.205 50.000,40.000 C50.000,37.794 48.206,36.000 46.000,36.000 C44.513,36.000 43.228,36.825 42.539,38.032 L44.589,38.584 C44.951,38.223 45.450,38.000 46.000,38.000 C47.103,38.000 48.000,38.897 48.000,40.000 C48.000,41.102 47.103,42.000 46.000,42.000 ZM35.000,7.999 L35.000,6.000 L37.000,6.000 L37.000,7.999 L35.000,7.999 ZM55.809,28.588 L54.191,27.411 L61.036,18.000 L16.869,18.000 L23.632,28.145 L33.287,31.041 L32.713,32.958 L22.713,29.958 C22.490,29.891 22.297,29.748 22.168,29.554 L14.168,17.554 C14.059,17.390 14.000,17.197 14.000,16.999 L14.000,12.999 C14.000,12.447 14.448,11.999 15.000,11.999 L55.586,11.999 L51.586,7.999 L46.000,7.999 C45.735,7.999 45.480,7.894 45.293,7.706 L39.586,2.000 L31.414,2.000 L27.414,6.000 L33.000,6.000 L33.000,7.999 L25.414,7.999 L22.707,10.707 L21.293,9.293 L30.293,0.292 C30.480,0.105 30.735,-0.000 31.000,-0.000 L40.000,-0.000 C40.265,-0.000 40.519,0.105 40.707,0.292 L46.414,6.000 L52.000,6.000 C52.265,6.000 52.519,6.105 52.707,6.292 L58.414,11.999 L63.000,11.999 C63.552,11.999 64.000,12.447 64.000,12.999 L64.000,16.999 C64.000,17.211 63.933,17.417 63.809,17.588 L55.809,28.588 ZM62.000,14.000 L16.000,14.000 L16.000,16.000 L62.000,16.000 L62.000,14.000 Z"/>
	<path fill-rule="evenodd" fill="rgb(195, 37, 37)" d="M-0.000,29.000 L23.000,29.000 L23.000,52.000 L-0.000,52.000 L-0.000,29.000 Z"/>
	<path fill-rule="evenodd" fill="rgb(255, 255, 255)" d="M12.336,47.110 L13.865,47.110 L13.865,44.474 L15.658,44.474 L15.658,43.086 L13.865,43.086 L13.865,34.431 L11.528,34.431 C8.532,38.728 7.047,41.039 5.966,43.042 L5.966,44.474 L12.336,44.474 L12.336,47.110 ZM7.530,43.051 C8.532,41.294 9.911,39.176 12.310,35.749 L12.336,35.749 L12.336,43.086 L7.530,43.086 L7.530,43.051 Z"/>
</svg>