<?xml version="1.0" encoding="UTF-8"?>
<svg style="enable-background:new 0 0 20 18" version="1.1" viewBox="0 0 20 18" xml:space="preserve" xmlns="http://www.w3.org/2000/svg" xmlns:xlink="http://www.w3.org/1999/xlink" width="20px" height="18px">
	<path fill-rule="evenodd" fill="rgb(213, 38, 38)" d="M12.998,-0.000 L6.998,0.005 L5.164,2.001 L2.000,2.001 C0.900,2.001 -0.000,2.901 -0.000,4.001 L-0.000,16.000 C-0.000,17.100 0.900,18.000 2.000,18.000 L18.000,18.000 C19.100,18.000 20.000,17.100 20.000,16.000 L20.000,4.001 C20.000,2.901 19.100,2.001 18.000,2.001 L14.844,2.001 L12.998,-0.000 ZM12.121,2.000 L13.967,4.001 L18.000,4.001 L18.000,16.000 L2.000,16.000 L2.000,4.001 L6.043,4.001 L7.879,2.003 L12.121,2.000 ZM10.000,5.001 C7.239,5.001 5.000,7.240 5.000,10.001 C5.000,12.761 7.239,15.000 10.000,15.000 C12.761,15.000 15.000,12.761 15.000,10.001 C15.000,7.240 12.761,5.001 10.000,5.001 ZM10.000,7.001 C11.657,7.001 13.000,8.344 13.000,10.001 C13.000,11.657 11.657,13.000 10.000,13.000 C8.343,13.000 7.000,11.657 7.000,10.001 C7.000,8.344 8.343,7.001 10.000,7.001 Z"/>
</svg>