<?xml version="1.0" encoding="UTF-8"?>
<svg style="enable-background:new 0 0 81 59" version="1.1" viewBox="0 0 81 59" xml:space="preserve" xmlns="http://www.w3.org/2000/svg" xmlns:xlink="http://www.w3.org/1999/xlink" width="81px" height="59px">
	<path fill-rule="evenodd" fill="rgb(201, 201, 201)" d="M-0.001,58.993 L-0.001,56.781 L8.023,56.781 L7.587,56.449 C4.380,54.012 2.542,50.303 2.542,46.272 C2.542,41.788 4.924,37.584 8.760,35.301 L8.963,35.181 L0.319,26.404 C0.112,26.196 -0.001,25.918 -0.001,25.623 L-0.001,16.589 C-0.001,15.979 0.488,15.482 1.089,15.482 L3.014,15.482 L6.511,9.566 C6.669,9.301 6.931,9.112 7.231,9.052 L13.146,7.850 L17.981,0.489 C18.184,0.179 18.522,-0.005 18.886,-0.005 C19.003,-0.005 19.120,0.014 19.232,0.052 L26.664,2.567 L32.872,2.576 C33.213,2.576 33.539,2.742 33.743,3.019 L37.231,7.739 L41.771,7.739 C41.968,7.739 42.162,7.794 42.332,7.897 L47.959,11.324 L51.172,8.064 C51.375,7.857 51.655,7.739 51.942,7.739 L63.202,7.739 L63.202,9.950 L52.393,9.950 L39.999,22.533 C39.793,22.742 39.519,22.856 39.229,22.856 L2.178,22.856 L2.178,25.164 L11.093,34.215 L11.199,34.180 C12.152,33.864 13.164,33.668 14.207,33.595 L14.321,33.587 L16.537,27.964 L18.560,28.786 L16.638,33.663 L16.867,33.697 C17.948,33.855 18.974,34.138 19.915,34.541 L20.082,34.612 L22.900,27.937 L24.902,28.809 L22.002,35.678 L22.125,35.764 C23.150,36.475 24.071,37.346 24.864,38.353 L25.059,38.601 L29.250,27.964 L31.274,28.786 L26.853,40.004 L30.862,40.004 L35.606,27.964 L37.630,28.786 L33.210,40.004 L37.219,40.004 L41.963,27.964 L43.987,28.786 L39.567,40.004 L43.563,40.004 L53.467,13.614 C53.627,13.187 54.036,12.901 54.485,12.901 L67.198,12.901 C67.639,12.901 68.034,13.168 68.204,13.582 L74.464,28.833 L80.681,35.165 C80.884,35.371 81.001,35.656 81.001,35.947 L81.001,46.272 C81.001,46.881 80.512,47.377 79.911,47.377 L75.868,47.377 L75.852,47.544 C75.507,51.058 73.691,54.305 70.871,56.449 L70.434,56.781 L81.001,56.781 L81.001,58.993 L-0.001,58.993 ZM63.384,35.762 C57.675,35.762 53.031,40.476 53.031,46.272 C53.031,52.067 57.675,56.781 63.384,56.781 C69.092,56.781 73.737,52.067 73.737,46.272 C73.737,40.476 69.092,35.762 63.384,35.762 ZM27.541,47.544 C27.196,51.058 25.381,54.305 22.560,56.449 L22.123,56.781 L56.334,56.781 L55.897,56.449 C53.077,54.305 51.261,51.058 50.916,47.544 L50.900,47.377 L27.557,47.377 L27.541,47.544 ZM15.073,35.762 C9.365,35.762 4.721,40.476 4.721,46.272 C4.721,52.067 9.365,56.781 15.073,56.781 C20.782,56.781 25.426,52.067 25.426,46.272 C25.426,40.476 20.782,35.762 15.073,35.762 ZM63.384,33.551 C69.850,33.551 75.211,38.472 75.852,44.999 L75.868,45.165 L78.822,45.165 L78.822,36.405 L72.785,30.276 C72.683,30.173 72.604,30.053 72.550,29.920 L66.472,15.113 L55.235,15.113 L45.332,41.504 C45.172,41.929 44.763,42.215 44.314,42.215 L26.952,42.215 L27.027,42.456 C27.283,43.282 27.456,44.138 27.541,44.999 L27.557,45.165 L50.900,45.165 L50.916,44.999 C51.558,38.472 56.917,33.551 63.384,33.551 ZM2.178,20.645 L38.777,20.645 L41.684,17.694 L2.178,17.694 L2.178,20.645 ZM15.536,8.198 L23.001,10.364 C23.228,10.428 23.431,10.571 23.572,10.763 L27.060,15.482 L43.863,15.482 L46.371,12.936 L41.469,9.950 L36.686,9.950 C36.344,9.950 36.019,9.785 35.815,9.509 L32.328,4.788 L26.515,4.788 C26.397,4.788 26.281,4.769 26.171,4.732 L19.332,2.418 L15.536,8.198 ZM8.131,11.125 L5.555,15.482 L24.336,15.482 L22.050,12.387 L13.757,9.982 L8.131,11.125 ZM63.384,53.831 C59.278,53.831 55.938,50.440 55.938,46.272 C55.938,42.104 59.278,38.713 63.384,38.713 C67.490,38.713 70.830,42.104 70.830,46.272 C70.830,50.440 67.490,53.831 63.384,53.831 ZM63.384,40.925 C60.480,40.925 58.117,43.324 58.117,46.272 C58.117,49.220 60.480,51.619 63.384,51.619 C66.288,51.619 68.651,49.220 68.651,46.272 C68.651,43.324 66.288,40.925 63.384,40.925 ZM15.073,53.831 C10.968,53.831 7.627,50.440 7.627,46.272 C7.627,42.104 10.968,38.713 15.073,38.713 C19.179,38.713 22.519,42.104 22.519,46.272 C22.519,50.440 19.179,53.831 15.073,53.831 ZM15.073,40.925 C12.169,40.925 9.806,43.324 9.806,46.272 C9.806,49.220 12.169,51.619 15.073,51.619 C17.978,51.619 20.340,49.220 20.340,46.272 C20.340,43.324 17.978,40.925 15.073,40.925 ZM54.485,30.600 C54.127,30.600 53.792,30.422 53.590,30.124 C53.386,29.827 53.340,29.446 53.464,29.106 L57.278,18.781 C57.437,18.352 57.848,18.064 58.299,18.064 L63.384,18.064 C63.835,18.064 64.245,18.352 64.405,18.781 L68.218,29.106 C68.344,29.446 68.296,29.827 68.094,30.124 C67.890,30.422 67.555,30.600 67.198,30.600 L54.485,30.600 ZM56.057,28.388 L65.626,28.388 L62.629,20.275 L59.053,20.275 L56.057,28.388 Z"/>
	<path fill-rule="evenodd" fill="rgb(195, 37, 37)" d="M-0.000,36.000 L23.000,36.000 L23.000,59.000 L-0.000,59.000 L-0.000,36.000 Z"/>
	<path fill-rule="evenodd" fill="rgb(255, 255, 255)" d="M9.011,48.258 L10.601,48.258 C12.411,48.258 13.536,49.181 13.536,50.675 C13.536,52.002 12.332,52.951 10.654,52.951 C8.949,52.951 7.868,52.054 7.728,50.754 L6.208,50.754 C6.322,52.854 8.018,54.321 10.671,54.321 C13.158,54.321 15.144,52.801 15.144,50.622 C15.144,48.838 13.914,47.652 11.998,47.538 L11.998,47.503 C13.580,47.222 14.599,46.079 14.599,44.489 C14.599,42.582 12.886,41.220 10.619,41.220 C8.237,41.220 6.638,42.600 6.462,44.752 L7.983,44.752 C8.123,43.426 9.090,42.591 10.548,42.591 C12.156,42.591 13.009,43.443 13.009,44.700 C13.009,45.983 11.989,46.923 10.531,46.923 L9.011,46.923 L9.011,48.258 Z"/>
</svg>