<?xml version="1.0" encoding="UTF-8"?>
<svg style="enable-background:new 0 0 42 40" version="1.1" viewBox="0 0 42 40" xml:space="preserve" xmlns="http://www.w3.org/2000/svg" xmlns:xlink="http://www.w3.org/1999/xlink" width="42px" height="40px">
	<title>INSTAGRAM</title>
    <desc>created with tarantul web development</desc>
	<path fill-rule="evenodd" fill="rgb(255, 255, 255)" d="M35.801,39.999 L6.537,39.999 C3.082,39.999 0.338,37.199 0.338,33.799 L0.338,6.199 C0.338,2.799 3.082,-0.001 6.537,-0.001 L35.801,-0.001 C39.256,-0.001 42.000,2.799 42.000,6.199 L42.000,33.899 C42.000,37.199 39.256,39.999 35.801,39.999 ZM38.951,5.999 C38.951,4.299 37.630,2.999 35.903,2.999 L6.435,2.999 C4.708,2.999 3.386,4.299 3.386,5.999 L3.386,33.999 C3.386,35.699 4.708,36.999 6.435,36.999 L35.903,36.999 C37.630,36.999 38.951,35.699 38.951,33.999 L38.951,5.999 ZM32.245,11.199 C30.822,11.199 29.704,9.999 29.704,8.599 C29.806,7.199 30.924,5.999 32.245,5.999 C33.667,5.999 34.785,7.099 34.785,8.599 C34.785,9.999 33.667,11.199 32.245,11.199 ZM21.169,30.999 C15.275,30.999 10.499,26.099 10.499,19.999 C10.499,13.899 15.275,8.999 21.169,8.999 C27.063,8.999 31.838,13.899 31.838,19.999 C31.838,26.099 27.063,30.999 21.169,30.999 ZM21.169,12.899 C17.308,12.899 14.259,16.099 14.259,19.999 C14.259,23.899 17.409,27.099 21.169,27.099 C25.030,27.099 28.079,23.899 28.079,19.999 C28.079,16.099 25.030,12.899 21.169,12.899 Z"/>
</svg>