<?xml version="1.0" encoding="UTF-8"?>
<svg style="enable-background:new 0 0 124 44" version="1.1" viewBox="0 0 124 44" xml:space="preserve" xmlns="http://www.w3.org/2000/svg" xmlns:xlink="http://www.w3.org/1999/xlink" width="124px" height="44px">
	<title>LOGO</title>
    <desc>created with tarantul web development</desc>
	<path fill-rule="evenodd" fill="rgb(255, 255, 255)" d="M120.467,33.861 L120.467,43.703 L117.229,43.703 L117.229,33.861 L113.700,33.861 L113.700,31.321 L123.996,31.321 L123.996,33.861 L120.467,33.861 ZM107.328,36.117 L107.240,36.117 L102.043,43.703 L98.946,43.703 L98.946,31.321 L102.175,31.321 L102.175,38.914 L102.264,38.914 L107.460,31.321 L110.557,31.321 L110.557,43.703 L107.328,43.703 L107.328,36.117 ZM91.718,38.717 L86.646,38.717 L86.646,43.703 L83.408,43.703 L83.408,31.321 L86.646,31.321 L86.646,36.177 L91.718,36.177 L91.718,31.321 L94.947,31.321 L94.947,43.703 L91.718,43.703 L91.718,38.717 ZM76.321,40.982 L72.157,40.982 L71.345,43.703 L68.046,43.703 L72.324,31.321 L76.286,31.321 L80.565,43.703 L77.124,43.703 L76.321,40.982 ZM74.274,33.946 L74.204,33.946 L72.783,38.717 L75.686,38.717 L74.274,33.946 ZM60.765,40.073 L58.621,40.073 L58.621,43.703 L55.383,43.703 L55.383,31.321 L60.968,31.321 C63.694,31.321 65.547,33.045 65.547,35.705 C65.547,38.348 63.597,40.073 60.765,40.073 ZM60.103,33.732 L58.621,33.732 L58.621,37.705 L60.086,37.705 C61.462,37.705 62.274,37.009 62.274,35.714 C62.274,34.427 61.462,33.732 60.103,33.732 ZM47.027,43.703 L43.789,43.703 L43.789,31.321 L52.338,31.321 L52.338,33.852 L47.027,33.852 L47.027,43.703 ZM34.744,41.394 C36.067,41.394 37.055,40.613 37.347,39.335 L40.496,39.335 C40.196,42.141 37.911,44.011 34.735,44.011 C30.924,44.011 28.551,41.557 28.551,37.507 C28.551,33.466 30.941,31.012 34.735,31.012 C37.841,31.012 40.214,32.968 40.479,35.740 L37.338,35.740 C37.064,34.453 36.050,33.629 34.735,33.629 C32.971,33.629 31.850,35.096 31.850,37.499 C31.850,39.927 32.962,41.394 34.744,41.394 ZM19.320,43.917 C15.456,43.917 13.029,41.463 13.029,37.516 C13.029,33.569 15.464,31.106 19.320,31.106 C23.175,31.106 25.602,33.569 25.602,37.516 C25.602,41.463 23.175,43.917 19.320,43.917 ZM19.320,33.663 C17.511,33.663 16.329,35.156 16.329,37.516 C16.329,39.867 17.502,41.360 19.320,41.360 C21.128,41.360 22.311,39.867 22.311,37.516 C22.311,35.156 21.128,33.663 19.320,33.663 ZM5.396,40.073 L3.252,40.073 L3.252,43.703 L0.014,43.703 L0.014,31.321 L5.599,31.321 C8.325,31.321 10.178,33.045 10.178,35.705 C10.178,38.348 8.228,40.073 5.396,40.073 ZM4.734,33.732 L3.252,33.732 L3.252,37.705 L4.717,37.705 C6.093,37.705 6.905,37.009 6.905,35.714 C6.905,34.427 6.093,33.732 4.734,33.732 Z"/>
	<path fill-rule="evenodd" fill="rgb(213, 38, 38)" d="M44.939,23.306 L53.486,10.866 L62.281,23.306 L66.035,23.306 L59.758,14.427 L66.090,5.304 L78.819,23.306 L82.573,23.306 L66.090,-0.006 L57.906,11.809 L53.486,5.557 L41.291,23.306 L44.939,23.306 Z"/>
</svg>