<svg 
 xmlns="http://www.w3.org/2000/svg"
 xmlns:xlink="http://www.w3.org/1999/xlink"
 width="124px" height="44px">
<path fill-rule="evenodd"  fill="rgb(84, 82, 75)"
 d="M120.467,33.860 L120.467,43.702 L117.229,43.702 L117.229,33.860 L113.700,33.860 L113.700,31.320 L123.996,31.320 L123.996,33.860 L120.467,33.860 ZM107.328,36.117 L107.240,36.117 L102.043,43.702 L98.946,43.702 L98.946,31.320 L102.175,31.320 L102.175,38.914 L102.264,38.914 L107.460,31.320 L110.557,31.320 L110.557,43.702 L107.328,43.702 L107.328,36.117 ZM91.718,38.716 L86.646,38.716 L86.646,43.702 L83.408,43.702 L83.408,31.320 L86.646,31.320 L86.646,36.177 L91.718,36.177 L91.718,31.320 L94.947,31.320 L94.947,43.702 L91.718,43.702 L91.718,38.716 ZM76.321,40.982 L72.157,40.982 L71.345,43.702 L68.046,43.702 L72.324,31.320 L76.286,31.320 L80.565,43.702 L77.124,43.702 L76.321,40.982 ZM74.274,33.946 L74.204,33.946 L72.783,38.716 L75.686,38.716 L74.274,33.946 ZM60.765,40.072 L58.621,40.072 L58.621,43.702 L55.383,43.702 L55.383,31.320 L60.968,31.320 C63.694,31.320 65.547,33.045 65.547,35.705 C65.547,38.348 63.597,40.072 60.765,40.072 ZM60.103,33.731 L58.621,33.731 L58.621,37.704 L60.086,37.704 C61.462,37.704 62.274,37.009 62.274,35.713 C62.274,34.426 61.462,33.731 60.103,33.731 ZM47.027,43.702 L43.789,43.702 L43.789,31.320 L52.338,31.320 L52.338,33.852 L47.027,33.852 L47.027,43.702 ZM34.744,41.394 C36.067,41.394 37.055,40.613 37.347,39.335 L40.496,39.335 C40.196,42.140 37.911,44.011 34.735,44.011 C30.924,44.011 28.551,41.557 28.551,37.506 C28.551,33.465 30.941,31.012 34.735,31.012 C37.841,31.012 40.214,32.968 40.479,35.739 L37.338,35.739 C37.064,34.452 36.050,33.629 34.735,33.629 C32.971,33.629 31.850,35.096 31.850,37.498 C31.850,39.926 32.962,41.394 34.744,41.394 ZM19.320,43.917 C15.456,43.917 13.029,41.462 13.029,37.516 C13.029,33.568 15.464,31.106 19.320,31.106 C23.175,31.106 25.602,33.568 25.602,37.516 C25.602,41.462 23.175,43.917 19.320,43.917 ZM19.320,33.663 C17.511,33.663 16.329,35.156 16.329,37.516 C16.329,39.866 17.502,41.359 19.320,41.359 C21.128,41.359 22.311,39.866 22.311,37.516 C22.311,35.156 21.128,33.663 19.320,33.663 ZM5.396,40.072 L3.252,40.072 L3.252,43.702 L0.014,43.702 L0.014,31.320 L5.599,31.320 C8.325,31.320 10.178,33.045 10.178,35.705 C10.178,38.348 8.228,40.072 5.396,40.072 ZM4.734,33.731 L3.252,33.731 L3.252,37.704 L4.717,37.704 C6.093,37.704 6.905,37.009 6.905,35.713 C6.905,34.426 6.093,33.731 4.734,33.731 Z"/>
<path fill-rule="evenodd"  fill="rgb(213, 38, 38)"
 d="M44.939,23.305 L53.486,10.865 L62.281,23.305 L66.035,23.305 L59.758,14.427 L66.090,5.303 L78.819,23.305 L82.573,23.305 L66.090,-0.006 L57.906,11.808 L53.486,5.556 L41.291,23.305 L44.939,23.305 Z"/>
</svg>