<svg 
 xmlns="http://www.w3.org/2000/svg"
 xmlns:xlink="http://www.w3.org/1999/xlink"
 width="64px" height="58px">
<path fill-rule="evenodd"  fill="rgb(201, 201, 201)"
 d="M64.000,34.999 C64.000,37.144 62.643,38.978 60.742,39.687 C61.524,40.569 62.000,41.730 62.000,43.000 C62.000,45.144 60.643,46.978 58.742,47.687 C59.524,48.569 60.000,49.730 60.000,51.000 C60.000,53.756 57.757,55.999 55.000,55.999 L29.000,55.999 C28.845,55.999 28.691,55.963 28.553,55.894 L24.764,53.999 L22.000,53.999 L22.000,51.999 L25.000,51.999 C25.155,51.999 25.309,52.035 25.447,52.105 L29.236,53.999 L45.026,53.999 C44.391,53.161 44.000,52.129 44.000,51.000 C44.000,49.720 44.497,48.564 45.290,47.679 C43.377,46.977 42.000,45.153 42.000,43.000 C42.000,41.560 42.621,40.270 43.598,39.357 C42.057,38.504 41.000,36.881 41.000,34.999 C41.000,32.852 42.369,31.031 44.275,30.325 C43.483,29.442 43.000,28.277 43.000,27.000 C43.000,25.870 43.391,24.838 44.025,24.000 L41.000,24.000 C40.734,24.000 40.480,23.894 40.293,23.707 L39.293,22.707 C38.998,22.412 38.917,21.965 39.090,21.585 L44.054,10.664 C44.193,10.117 45.000,6.883 45.000,5.000 C45.000,3.345 43.654,2.000 42.000,2.000 C40.897,2.000 40.000,2.897 40.000,4.000 C40.000,4.155 39.964,4.308 39.894,4.447 L35.894,12.447 C35.847,12.543 35.783,12.630 35.707,12.707 L24.707,23.707 C24.519,23.894 24.266,24.000 24.000,24.000 L20.000,24.000 L20.000,55.000 C20.000,55.552 19.553,55.999 19.000,55.999 L-0.000,55.999 L-0.000,53.999 L4.000,53.999 L4.000,24.000 L-0.000,24.000 L-0.000,22.000 L19.000,22.000 L23.586,22.000 L34.178,11.407 L38.008,3.747 C38.138,1.659 39.879,-0.000 42.000,-0.000 C44.757,-0.000 47.000,2.242 47.000,5.000 C47.000,7.312 46.009,11.094 45.967,11.254 C45.952,11.309 45.934,11.362 45.910,11.414 L41.197,21.782 L41.414,22.000 L57.000,22.000 C59.757,22.000 62.000,24.243 62.000,27.000 C62.000,28.269 61.524,29.430 60.742,30.312 C62.643,31.021 64.000,32.855 64.000,34.999 ZM18.000,24.000 L6.000,24.000 L6.000,53.999 L18.000,53.999 L18.000,24.000 ZM55.000,53.999 C56.654,53.999 58.000,52.654 58.000,51.000 C58.000,49.345 56.654,48.000 55.000,48.000 L49.000,48.000 C47.346,48.000 46.000,49.345 46.000,51.000 C46.000,52.654 47.346,53.999 49.000,53.999 L55.000,53.999 ZM47.000,46.000 L55.000,46.000 L57.000,46.000 C58.654,46.000 60.000,44.654 60.000,43.000 C60.000,41.345 58.654,40.000 57.000,40.000 L47.000,40.000 C45.346,40.000 44.000,41.345 44.000,43.000 C44.000,44.654 45.346,46.000 47.000,46.000 ZM57.000,24.000 L48.000,24.000 C46.346,24.000 45.000,25.345 45.000,27.000 C45.000,28.654 46.346,30.000 48.000,30.000 L57.000,30.000 C58.654,30.000 60.000,28.654 60.000,27.000 C60.000,25.345 58.654,24.000 57.000,24.000 ZM59.000,32.000 L57.000,32.000 L46.000,32.000 C44.346,32.000 43.000,33.345 43.000,34.999 C43.000,36.654 44.346,37.999 46.000,37.999 L46.000,38.100 C46.323,38.035 46.658,37.999 47.000,37.999 L57.000,37.999 L59.000,37.999 C60.654,37.999 62.000,36.654 62.000,34.999 C62.000,33.345 60.654,32.000 59.000,32.000 ZM12.000,51.999 L10.000,51.999 L10.000,49.999 L12.000,49.999 L12.000,51.999 ZM16.000,51.999 L14.000,51.999 L14.000,49.999 L16.000,49.999 L16.000,51.999 Z"/>
<path fill-rule="evenodd"  fill="rgb(195, 37, 37)"
 d="M-0.000,35.000 L23.000,35.000 L23.000,58.000 L-0.000,58.000 L-0.000,35.000 Z"/>
<path fill-rule="evenodd"  fill="rgb(255, 255, 255)"
 d="M10.953,53.330 C13.553,53.330 15.443,51.502 15.443,48.998 C15.443,46.591 13.650,44.807 11.234,44.807 C9.661,44.807 8.264,45.624 7.693,46.863 L7.666,46.863 C7.719,43.489 8.923,41.608 11.040,41.608 C12.297,41.608 13.316,42.347 13.659,43.498 L15.267,43.498 C14.863,41.503 13.211,40.211 11.058,40.211 C7.956,40.211 6.137,42.716 6.137,46.986 C6.137,48.357 6.339,49.499 6.761,50.474 C7.543,52.302 9.055,53.330 10.953,53.330 ZM10.935,51.924 C9.309,51.924 8.044,50.633 8.044,49.007 C8.044,47.390 9.283,46.195 10.961,46.195 C12.640,46.195 13.835,47.390 13.835,49.051 C13.835,50.650 12.552,51.924 10.935,51.924 Z"/>
</svg>