<svg 
 xmlns="http://www.w3.org/2000/svg"
 xmlns:xlink="http://www.w3.org/1999/xlink"
 width="42px" height="40px">
<path fill-rule="evenodd"  fill="rgb(255, 255, 255)"
 d="M35.692,-0.001 L6.427,-0.001 C2.972,-0.001 0.228,2.799 0.228,6.199 L0.228,33.899 C0.228,37.199 2.972,39.999 6.427,39.999 L35.692,39.999 C39.146,39.999 41.890,37.199 41.890,33.799 L41.890,6.199 C41.890,2.799 39.146,-0.001 35.692,-0.001 ZM38.842,33.999 C38.842,35.699 37.521,36.999 35.793,36.999 L28.579,36.999 L28.579,24.098 L33.354,24.098 L34.066,18.699 L28.579,18.699 L28.579,15.199 C28.579,13.599 28.985,12.498 31.322,12.498 L34.269,12.498 L34.269,7.499 C33.761,7.399 32.033,7.299 29.900,7.299 C25.632,7.299 22.787,9.798 22.787,14.498 L22.787,18.599 L17.909,18.599 L17.909,23.999 L22.787,23.999 L22.787,36.899 L6.325,36.899 C4.598,36.899 3.277,35.599 3.277,33.899 L3.277,5.999 C3.277,4.299 4.598,2.999 6.325,2.999 L35.793,2.999 C37.521,2.999 38.842,4.299 38.842,5.999 L38.842,33.999 Z"/>
</svg>