<svg 
 xmlns="http://www.w3.org/2000/svg"
 xmlns:xlink="http://www.w3.org/1999/xlink"
 width="67px" height="40px">
<path fill-rule="evenodd"  fill="rgb(255, 255, 255)"
 d="M63.000,40.000 L4.000,40.000 C1.791,40.000 -0.000,38.209 -0.000,36.000 L-0.000,4.000 C-0.000,1.791 1.791,-0.000 4.000,-0.000 L63.000,-0.000 C65.209,-0.000 67.000,1.791 67.000,4.000 L67.000,36.000 C67.000,38.209 65.209,40.000 63.000,40.000 ZM32.000,2.999 L5.000,2.999 C3.895,2.999 3.000,3.895 3.000,4.999 L2.869,35.142 C2.869,36.247 3.895,36.999 5.000,36.999 L16.000,36.999 L16.000,27.500 C16.000,26.672 16.671,26.000 17.500,26.000 C18.328,26.000 19.000,26.672 19.000,27.500 L19.000,36.999 L32.000,36.999 L32.000,2.999 ZM64.000,22.000 L63.500,22.000 C62.672,22.000 62.000,21.328 62.000,20.500 C62.000,19.671 62.672,19.000 63.500,19.000 L64.000,19.000 L64.000,4.999 C64.000,3.895 63.104,2.999 62.000,2.999 L35.000,2.999 L35.000,36.999 L62.000,36.999 C63.104,36.999 64.000,36.104 64.000,34.999 L64.000,22.000 ZM49.500,29.000 C48.672,29.000 48.000,28.328 48.000,27.500 L48.000,25.500 C48.000,24.672 48.672,24.000 49.500,24.000 C50.328,24.000 51.000,24.672 51.000,25.500 L51.000,27.500 C51.000,28.328 50.328,29.000 49.500,29.000 ZM49.500,16.000 C48.672,16.000 48.000,15.328 48.000,14.500 L48.000,12.500 C48.000,11.671 48.672,11.000 49.500,11.000 C50.328,11.000 51.000,11.671 51.000,12.500 L51.000,14.500 C51.000,15.328 50.328,16.000 49.500,16.000 ZM17.500,16.000 C16.671,16.000 16.000,15.328 16.000,14.500 L16.000,12.500 C16.000,11.671 16.671,11.000 17.500,11.000 C18.328,11.000 19.000,11.671 19.000,12.500 L19.000,14.500 C19.000,15.328 18.328,16.000 17.500,16.000 Z"/>
</svg>