<svg 
 xmlns="http://www.w3.org/2000/svg"
 xmlns:xlink="http://www.w3.org/1999/xlink"
 width="40px" height="53px">
<path fill-rule="evenodd"  fill="rgb(224, 55, 55)"
 d="M39.687,20.638 C39.687,9.638 30.873,0.717 19.998,0.717 C9.126,0.717 0.312,9.638 0.312,20.638 C0.312,22.101 0.466,23.523 0.760,24.895 L0.747,24.900 C3.139,35.788 9.395,45.203 17.986,51.597 C18.550,52.026 19.256,52.281 20.019,52.281 C20.630,52.281 21.203,52.116 21.699,51.831 C21.914,51.673 22.126,51.514 22.337,51.355 C30.689,45.021 36.794,35.804 39.196,25.139 L39.182,25.138 C39.514,23.690 39.687,22.185 39.687,20.638 ZM19.998,11.511 C24.981,11.511 29.020,15.598 29.020,20.638 C29.020,25.678 24.981,29.764 19.998,29.764 C15.018,29.764 10.979,25.678 10.979,20.638 C10.979,15.598 15.018,11.511 19.998,11.511 Z"/>
</svg>