<svg 
 xmlns="http://www.w3.org/2000/svg"
 xmlns:xlink="http://www.w3.org/1999/xlink"
 width="64px" height="56px">
<path fill-rule="evenodd"  fill="rgb(78, 78, 78)"
 d="M-0.000,56.000 L-0.000,54.002 L15.000,54.002 L49.000,54.002 L64.000,54.002 L64.000,56.000 L-0.000,56.000 ZM40.000,48.008 L24.000,48.008 L24.000,46.010 L40.000,46.010 L40.000,48.008 ZM42.000,47.009 C42.000,45.933 42.265,44.924 42.702,44.013 L21.298,44.013 C21.735,44.924 22.000,45.933 22.000,47.009 C22.000,50.865 18.860,54.002 15.000,54.002 C11.140,54.002 8.000,50.865 8.000,47.009 C8.000,45.933 8.265,44.924 8.702,44.013 L6.000,44.013 L6.000,42.015 L10.000,42.015 L10.000,42.131 C11.272,40.830 13.040,40.017 15.000,40.017 C16.959,40.017 18.728,40.830 20.000,42.131 L20.000,42.015 L44.000,42.015 L44.000,42.131 C45.272,40.830 47.040,40.017 49.000,40.017 C50.959,40.017 52.728,40.830 54.000,42.131 L54.000,42.015 L58.000,42.015 L58.000,44.013 L55.298,44.013 C55.735,44.924 56.000,45.933 56.000,47.009 C56.000,50.865 52.860,54.002 49.000,54.002 C45.140,54.002 42.000,50.865 42.000,47.009 ZM15.000,42.015 C12.243,42.015 10.000,44.256 10.000,47.009 C10.000,49.763 12.243,52.004 15.000,52.004 C17.757,52.004 20.000,49.763 20.000,47.009 C20.000,44.256 17.757,42.015 15.000,42.015 ZM49.000,52.004 C51.757,52.004 54.000,49.763 54.000,47.009 C54.000,44.256 51.757,42.015 49.000,42.015 C46.243,42.015 44.000,44.256 44.000,47.009 C44.000,49.763 46.243,52.004 49.000,52.004 ZM50.000,48.008 L48.000,48.008 L48.000,46.010 L50.000,46.010 L50.000,48.008 ZM14.000,46.010 L16.000,46.010 L16.000,48.008 L14.000,48.008 L14.000,46.010 ZM58.000,48.008 L58.000,46.010 L60.000,46.010 L60.000,12.047 L61.000,12.047 L62.000,12.047 L64.000,12.047 L64.000,14.045 L62.000,14.045 L62.000,46.010 L64.000,46.010 L64.000,48.008 L61.000,48.008 L58.000,48.008 ZM56.000,37.020 L58.000,37.020 L58.000,39.018 L56.000,39.018 L56.000,37.020 ZM46.000,39.018 L46.000,37.020 L48.000,37.020 L48.000,39.018 L46.000,39.018 ZM36.000,39.018 L36.000,37.020 L38.000,37.020 L38.000,39.018 L36.000,39.018 ZM26.000,39.018 L26.000,37.020 L28.000,37.020 L28.000,39.018 L26.000,39.018 ZM16.000,39.018 L16.000,37.020 L18.000,37.020 L18.000,39.018 L16.000,39.018 ZM6.000,32.026 L58.000,32.026 L58.000,34.024 L6.000,34.024 L6.000,32.026 ZM56.000,27.031 L58.000,27.031 L58.000,29.029 L56.000,29.029 L56.000,27.031 ZM46.000,29.029 L46.000,27.031 L48.000,27.031 L48.000,29.029 L46.000,29.029 ZM36.000,29.029 L36.000,27.031 L38.000,27.031 L38.000,29.029 L36.000,29.029 ZM26.000,29.029 L26.000,27.031 L28.000,27.031 L28.000,29.029 L26.000,29.029 ZM16.000,29.029 L16.000,27.031 L18.000,27.031 L18.000,29.029 L16.000,29.029 ZM6.000,22.037 L58.000,22.037 L58.000,24.035 L6.000,24.035 L6.000,22.037 ZM56.000,17.042 L58.000,17.042 L58.000,19.040 L56.000,19.040 L56.000,17.042 ZM46.000,19.040 L46.000,17.042 L48.000,17.042 L48.000,19.040 L46.000,19.040 ZM36.000,19.040 L36.000,17.042 L38.000,17.042 L38.000,19.040 L36.000,19.040 ZM26.000,19.040 L26.000,17.042 L28.000,17.042 L28.000,19.040 L26.000,19.040 ZM16.000,19.040 L16.000,17.042 L18.000,17.042 L18.000,19.040 L16.000,19.040 ZM7.000,14.045 L6.000,14.045 L6.000,12.047 L6.382,12.047 L8.105,8.604 C8.175,8.466 8.276,8.345 8.400,8.252 L12.400,5.255 C12.703,5.027 13.108,4.992 13.447,5.161 L14.803,5.838 L17.293,3.350 C17.597,3.046 18.061,2.970 18.447,3.163 L21.658,4.767 L23.168,2.503 C23.403,2.153 23.833,1.987 24.243,2.089 L27.781,2.972 L31.400,0.261 C31.704,0.033 32.107,-0.003 32.447,0.166 L36.000,1.940 L37.553,1.165 C37.751,1.067 37.979,1.037 38.196,1.079 L43.196,2.078 C43.389,2.117 43.567,2.212 43.707,2.351 L45.511,4.153 L48.884,4.996 L50.553,4.162 C50.938,3.969 51.404,4.045 51.707,4.349 L53.707,6.347 C53.894,6.534 54.000,6.788 54.000,7.053 L54.000,8.433 L55.447,9.157 C55.603,9.234 55.735,9.351 55.832,9.496 L57.535,12.047 L58.000,12.047 L58.000,14.045 L57.000,14.045 L7.000,14.045 ZM54.315,10.824 L52.553,9.945 C52.214,9.775 52.000,9.429 52.000,9.051 L52.000,7.467 L50.803,6.271 L49.447,6.948 C49.233,7.053 48.990,7.081 48.757,7.023 L44.757,6.024 C44.581,5.980 44.421,5.889 44.293,5.761 L43.906,5.375 L40.850,7.665 L39.949,10.366 L38.051,9.734 L39.051,6.737 C39.116,6.545 39.237,6.376 39.400,6.254 L42.453,3.967 L38.140,3.105 L36.447,3.951 C36.166,4.092 35.834,4.092 35.553,3.951 L32.105,2.229 L28.600,4.855 C28.359,5.036 28.050,5.100 27.757,5.025 L24.441,4.197 L22.832,6.608 C22.789,6.672 22.731,6.716 22.677,6.767 L23.618,8.176 L27.243,9.081 L26.757,11.018 L22.757,10.019 C22.516,9.960 22.306,9.812 22.168,9.605 L20.168,6.608 L20.470,6.407 L18.197,5.272 L15.707,7.759 C15.403,8.064 14.939,8.141 14.553,7.946 L13.105,7.224 L9.789,9.708 L8.618,12.047 L55.131,12.047 L54.315,10.824 ZM8.000,19.040 L6.000,19.040 L6.000,17.042 L8.000,17.042 L8.000,19.040 ZM8.000,29.029 L6.000,29.029 L6.000,27.031 L8.000,27.031 L8.000,29.029 ZM8.000,39.018 L6.000,39.018 L6.000,37.020 L8.000,37.020 L8.000,39.018 ZM6.000,48.008 L3.000,48.008 L-0.000,48.008 L-0.000,46.010 L2.000,46.010 L2.000,14.045 L-0.000,14.045 L-0.000,12.047 L2.000,12.047 L3.000,12.047 L4.000,12.047 L4.000,46.010 L6.000,46.010 L6.000,48.008 Z"/>
</svg>