<svg 
 xmlns="http://www.w3.org/2000/svg"
 xmlns:xlink="http://www.w3.org/1999/xlink"
 width="81px" height="55px">
<path fill-rule="evenodd"  fill="rgb(78, 78, 78)"
 d="M65.543,9.339 L40.131,0.956 L15.536,8.952 L-0.005,19.371 L3.253,24.433 L5.528,22.855 L5.528,54.939 L74.730,54.939 L74.730,22.070 L78.078,24.363 L80.999,20.823 L65.543,9.339 ZM27.819,52.923 L18.004,52.923 L18.004,42.842 L21.664,42.842 L21.664,46.539 L23.660,46.539 L23.660,42.842 L27.819,42.842 L27.819,52.923 ZM29.816,35.768 L29.816,30.728 L33.974,30.728 L33.974,40.826 L23.660,40.826 L23.660,30.728 L27.819,30.728 L27.819,35.768 L29.816,35.768 ZM40.046,52.923 L29.816,52.923 L29.816,42.842 L33.974,42.842 L33.974,46.539 L35.970,46.539 L35.970,42.842 L40.046,42.842 L40.046,52.923 ZM35.970,40.826 L35.970,30.728 L45.785,30.728 L45.785,40.826 L35.970,40.826 ZM51.774,52.923 L42.042,52.923 L42.042,42.842 L45.785,42.842 L45.785,46.539 L47.781,46.539 L47.781,42.842 L51.774,42.842 L51.774,52.923 ZM53.770,35.768 L53.770,30.728 L57.429,30.728 L57.429,40.826 L47.781,40.826 L47.781,30.728 L51.774,30.728 L51.774,35.768 L53.770,35.768 ZM64.083,52.923 L53.770,52.923 L53.770,42.842 L57.429,42.842 L57.429,46.539 L59.425,46.539 L59.425,42.842 L64.083,42.842 L64.083,52.923 ZM67.743,52.923 L66.079,52.923 L66.079,40.826 L59.425,40.826 L59.425,28.712 L21.664,28.712 L21.664,40.826 L16.008,40.826 L16.008,52.923 L14.345,52.923 L14.345,24.025 L67.743,24.025 L67.743,52.923 ZM72.734,21.000 L72.734,52.923 L69.739,52.923 L69.739,22.008 L12.349,22.008 L12.349,52.923 L7.524,52.923 L7.524,21.471 L17.784,14.354 L40.139,7.103 L62.984,14.025 L73.168,21.000 L72.734,21.000 ZM77.702,21.670 L63.978,12.270 L40.119,4.992 L17.034,12.480 L3.810,21.600 L2.744,19.943 L16.280,10.828 L40.127,3.075 L64.619,11.156 L78.108,21.178 L77.702,21.670 ZM33.309,12.700 L33.309,17.472 L47.116,17.472 L47.116,12.506 L40.111,10.541 L33.309,12.700 ZM45.119,14.038 L45.119,15.456 L35.305,15.456 L35.305,14.180 L40.146,12.643 L45.119,14.038 Z"/>
</svg>