<svg 
 xmlns="http://www.w3.org/2000/svg"
 xmlns:xlink="http://www.w3.org/1999/xlink"
 width="64px" height="56px">
<path fill-rule="evenodd"  fill="rgb(201, 201, 201)"
 d="M-0.000,55.999 L-0.000,46.000 L64.000,46.000 L64.000,55.999 L-0.000,55.999 ZM62.000,47.999 L2.000,47.999 L2.000,53.999 L4.000,53.999 L4.000,51.999 L6.000,51.999 L6.000,53.999 L8.000,53.999 L8.000,51.999 L10.000,51.999 L10.000,53.999 L12.000,53.999 L12.000,51.999 L14.000,51.999 L14.000,53.999 L16.000,53.999 L16.000,51.999 L18.000,51.999 L18.000,53.999 L20.000,53.999 L20.000,51.999 L22.000,51.999 L22.000,53.999 L24.000,53.999 L24.000,51.999 L26.000,51.999 L26.000,53.999 L28.000,53.999 L28.000,51.999 L30.000,51.999 L30.000,53.999 L32.000,53.999 L32.000,51.999 L34.000,51.999 L34.000,53.999 L36.000,53.999 L36.000,51.999 L38.000,51.999 L38.000,53.999 L40.000,53.999 L40.000,51.999 L42.000,51.999 L42.000,53.999 L44.000,53.999 L44.000,51.999 L46.000,51.999 L46.000,53.999 L48.000,53.999 L48.000,51.999 L50.000,51.999 L50.000,53.999 L52.000,53.999 L52.000,51.999 L54.000,51.999 L54.000,53.999 L62.000,53.999 L62.000,47.999 ZM60.000,51.999 L58.000,51.999 L58.000,49.999 L60.000,49.999 L60.000,51.999 ZM57.000,44.000 L-0.000,44.000 L-0.000,6.000 L48.000,6.000 L48.000,8.000 L2.000,8.000 L2.000,42.000 L57.000,42.000 C59.757,42.000 62.000,39.756 62.000,36.999 C62.000,34.243 59.757,32.000 57.000,32.000 C54.243,32.000 52.000,34.243 52.000,36.999 L50.000,36.999 L50.000,6.999 C50.000,3.140 53.140,-0.000 57.000,-0.000 C60.860,-0.000 64.000,3.140 64.000,6.999 L64.000,36.999 C64.000,40.859 60.860,44.000 57.000,44.000 ZM62.000,6.999 C62.000,4.243 59.757,2.000 57.000,2.000 C54.243,2.000 52.000,4.243 52.000,6.999 L52.000,32.105 C53.271,30.806 55.043,30.000 57.000,30.000 C58.956,30.000 60.728,30.806 62.000,32.105 L62.000,6.999 ZM45.000,39.000 L43.000,39.000 L43.000,35.999 L40.000,35.999 L40.000,39.000 L38.000,39.000 L38.000,35.999 L35.000,35.999 L35.000,39.000 L33.000,39.000 L33.000,35.999 L30.000,35.999 L30.000,39.000 L28.000,39.000 L28.000,35.999 L25.000,35.999 L25.000,39.000 L23.000,39.000 L23.000,35.999 L20.000,35.999 L20.000,39.000 L18.000,39.000 L18.000,35.999 L15.000,35.999 L15.000,39.000 L13.000,39.000 L13.000,35.999 L10.000,35.999 L10.000,39.000 L8.000,39.000 L8.000,35.999 L5.000,35.999 L5.000,34.000 L8.000,34.000 L8.000,30.999 L5.000,30.999 L5.000,28.999 L8.000,28.999 L8.000,26.000 L5.000,26.000 L5.000,24.000 L8.000,24.000 L8.000,20.999 L5.000,20.999 L5.000,18.999 L8.000,18.999 L8.000,15.999 L5.000,15.999 L5.000,13.999 L8.000,13.999 L8.000,10.999 L10.000,10.999 L10.000,13.999 L13.000,13.999 L13.000,10.999 L15.000,10.999 L15.000,13.999 L18.000,13.999 L18.000,10.999 L20.000,10.999 L20.000,13.999 L23.000,13.999 L23.000,10.999 L25.000,10.999 L25.000,13.999 L28.000,13.999 L28.000,10.999 L30.000,10.999 L30.000,13.999 L33.000,13.999 L33.000,10.999 L35.000,10.999 L35.000,13.999 L38.000,13.999 L38.000,10.999 L40.000,10.999 L40.000,13.999 L43.000,13.999 L43.000,10.999 L45.000,10.999 L45.000,13.999 L48.000,13.999 L48.000,15.999 L45.000,15.999 L45.000,18.999 L48.000,18.999 L48.000,20.999 L45.000,20.999 L45.000,24.000 L48.000,24.000 L48.000,26.000 L45.000,26.000 L45.000,28.999 L48.000,28.999 L48.000,30.999 L45.000,30.999 L45.000,34.000 L48.000,34.000 L48.000,35.999 L45.000,35.999 L45.000,39.000 ZM13.000,15.999 L10.000,15.999 L10.000,18.999 L13.000,18.999 L13.000,15.999 ZM13.000,20.999 L10.000,20.999 L10.000,24.000 L13.000,24.000 L13.000,20.999 ZM13.000,26.000 L10.000,26.000 L10.000,28.999 L13.000,28.999 L13.000,26.000 ZM13.000,30.999 L10.000,30.999 L10.000,34.000 L13.000,34.000 L13.000,30.999 ZM18.000,15.999 L15.000,15.999 L15.000,18.999 L18.000,18.999 L18.000,15.999 ZM18.000,20.999 L15.000,20.999 L15.000,24.000 L18.000,24.000 L18.000,20.999 ZM18.000,26.000 L15.000,26.000 L15.000,28.999 L18.000,28.999 L18.000,26.000 ZM18.000,30.999 L15.000,30.999 L15.000,34.000 L18.000,34.000 L18.000,30.999 ZM23.000,15.999 L20.000,15.999 L20.000,18.999 L23.000,18.999 L23.000,15.999 ZM23.000,20.999 L20.000,20.999 L20.000,24.000 L23.000,24.000 L23.000,20.999 ZM23.000,26.000 L20.000,26.000 L20.000,28.999 L23.000,28.999 L23.000,26.000 ZM23.000,30.999 L20.000,30.999 L20.000,34.000 L23.000,34.000 L23.000,30.999 ZM28.000,15.999 L25.000,15.999 L25.000,18.999 L28.000,18.999 L28.000,15.999 ZM28.000,20.999 L25.000,20.999 L25.000,24.000 L28.000,24.000 L28.000,20.999 ZM28.000,26.000 L25.000,26.000 L25.000,28.999 L28.000,28.999 L28.000,26.000 ZM28.000,30.999 L25.000,30.999 L25.000,34.000 L28.000,34.000 L28.000,30.999 ZM33.000,15.999 L30.000,15.999 L30.000,18.999 L33.000,18.999 L33.000,15.999 ZM33.000,20.999 L30.000,20.999 L30.000,24.000 L33.000,24.000 L33.000,20.999 ZM33.000,26.000 L30.000,26.000 L30.000,28.999 L33.000,28.999 L33.000,26.000 ZM33.000,30.999 L30.000,30.999 L30.000,34.000 L33.000,34.000 L33.000,30.999 ZM38.000,15.999 L35.000,15.999 L35.000,18.999 L38.000,18.999 L38.000,15.999 ZM38.000,20.999 L35.000,20.999 L35.000,24.000 L38.000,24.000 L38.000,20.999 ZM38.000,26.000 L35.000,26.000 L35.000,28.999 L38.000,28.999 L38.000,26.000 ZM38.000,30.999 L35.000,30.999 L35.000,34.000 L38.000,34.000 L38.000,30.999 ZM43.000,15.999 L40.000,15.999 L40.000,18.999 L43.000,18.999 L43.000,15.999 ZM43.000,20.999 L40.000,20.999 L40.000,24.000 L43.000,24.000 L43.000,20.999 ZM43.000,26.000 L40.000,26.000 L40.000,28.999 L43.000,28.999 L43.000,26.000 ZM43.000,30.999 L40.000,30.999 L40.000,34.000 L43.000,34.000 L43.000,30.999 Z"/>
<path fill-rule="evenodd"  fill="rgb(195, 37, 37)"
 d="M-0.000,33.000 L23.000,33.000 L23.000,56.000 L-0.000,56.000 L-0.000,33.000 Z"/>
<path fill-rule="evenodd"  fill="rgb(255, 255, 255)"
 d="M10.997,51.110 L12.526,51.110 L12.526,38.431 L10.979,38.431 L7.605,40.856 L7.605,42.526 L10.962,40.109 L10.997,40.109 L10.997,51.110 Z"/>
</svg>