<svg 
 xmlns="http://www.w3.org/2000/svg"
 xmlns:xlink="http://www.w3.org/1999/xlink"
 width="101px" height="62px">
<path fill-rule="evenodd"  fill="rgb(201, 201, 201)"
 d="M100.616,38.372 L83.034,48.438 L82.961,48.438 L82.870,48.530 C82.745,48.587 82.639,48.609 82.533,48.609 C82.400,48.609 82.269,48.574 82.155,48.508 L79.926,47.233 L79.926,51.093 C79.926,51.367 79.778,51.623 79.540,51.759 L62.272,61.646 L62.163,61.455 C62.105,61.634 62.007,61.797 61.842,61.894 C61.727,61.960 61.593,61.995 61.458,61.995 C61.325,61.995 61.193,61.960 61.078,61.895 L43.376,51.759 C43.139,51.623 42.991,51.367 42.991,51.093 L42.991,47.708 L40.467,49.153 L40.390,49.155 L40.297,49.246 C40.175,49.303 40.069,49.326 39.962,49.326 C39.830,49.326 39.698,49.290 39.583,49.225 L36.934,47.708 L36.934,51.093 C36.934,51.367 36.786,51.623 36.549,51.759 L19.280,61.646 L19.171,61.455 C19.113,61.634 19.015,61.797 18.850,61.894 C18.735,61.960 18.602,61.995 18.466,61.995 C18.333,61.995 18.201,61.960 18.086,61.895 L0.384,51.759 C0.147,51.623 -0.001,51.367 -0.001,51.093 L-0.001,37.156 C-0.001,36.885 0.145,36.630 0.380,36.492 C0.496,36.426 0.628,36.390 0.763,36.390 C0.820,36.390 0.871,36.421 0.927,36.434 L0.818,36.243 L18.087,26.356 C18.203,26.289 18.333,26.254 18.466,26.254 C18.600,26.254 18.730,26.289 18.845,26.354 L36.115,36.243 L36.006,36.434 C36.062,36.421 36.113,36.390 36.170,36.390 C36.305,36.390 36.437,36.426 36.552,36.492 C36.788,36.630 36.934,36.885 36.934,37.156 L36.934,45.942 L39.197,47.239 L39.197,35.067 L23.025,25.808 L23.025,28.697 L21.495,27.636 L21.495,24.487 C21.495,24.216 21.639,23.964 21.872,23.825 L39.583,13.686 C39.698,13.619 39.829,13.584 39.962,13.584 C40.096,13.584 40.226,13.619 40.341,13.685 L58.044,23.822 C58.284,23.960 58.430,24.215 58.430,24.487 L58.430,27.872 L60.486,26.695 L60.486,21.480 L44.313,12.220 L44.313,15.109 L42.783,14.049 L42.783,10.900 C42.783,10.627 42.929,10.373 43.164,10.235 L60.871,0.098 C60.986,0.032 61.117,-0.003 61.251,-0.003 C61.384,-0.003 61.515,0.032 61.630,0.097 L79.332,10.234 C79.572,10.373 79.718,10.628 79.718,10.900 L79.718,14.364 L82.154,12.969 C82.269,12.903 82.400,12.867 82.533,12.867 C82.666,12.867 82.797,12.903 82.912,12.968 L100.557,23.071 L100.585,23.099 L100.646,23.124 C100.883,23.297 101.001,23.526 101.001,23.770 L101.001,37.707 C101.001,37.981 100.853,38.235 100.616,38.372 ZM1.529,50.649 L17.701,59.908 L17.701,47.737 L1.529,38.478 L1.529,50.649 ZM18.466,27.903 L2.305,37.157 L18.573,46.471 L18.520,46.379 L34.628,37.157 L18.466,27.903 ZM35.404,38.478 L19.280,47.709 L19.231,47.625 L19.231,59.909 L35.404,50.649 L35.404,38.478 ZM79.161,36.390 C79.296,36.390 79.429,36.426 79.545,36.493 C79.779,36.630 79.926,36.885 79.926,37.156 L79.926,45.466 L81.768,46.520 L81.768,34.351 L65.596,25.091 L65.596,28.507 L79.107,36.243 L78.998,36.433 C79.053,36.421 79.104,36.390 79.161,36.390 ZM62.223,59.909 L78.396,50.649 L78.396,38.478 L62.272,47.709 L62.223,47.625 L62.223,59.909 ZM44.521,50.649 L60.693,59.908 L60.693,47.737 L44.521,38.478 L44.521,50.649 ZM39.962,15.233 L23.801,24.487 L39.962,33.740 L56.123,24.487 L39.962,15.233 ZM56.900,25.808 L40.727,35.067 L40.727,47.238 L42.991,45.943 L42.991,37.156 C42.991,36.885 43.137,36.630 43.372,36.492 C43.488,36.426 43.620,36.390 43.755,36.390 C43.812,36.390 43.863,36.421 43.919,36.434 L43.810,36.243 L56.900,28.748 L56.900,25.808 ZM45.297,37.157 L61.565,46.471 L61.512,46.379 L77.620,37.157 L61.557,27.960 L61.360,27.959 L45.297,37.157 ZM61.251,1.646 L45.089,10.900 L61.251,20.153 L77.412,10.900 L61.251,1.646 ZM78.188,12.220 L62.015,21.480 L62.015,26.457 L64.066,27.631 L64.066,23.770 C64.066,23.498 64.212,23.244 64.447,23.106 L78.188,15.240 L78.188,12.220 ZM82.533,14.516 L66.372,23.770 L82.533,33.023 L98.694,23.770 L82.533,14.516 ZM99.471,25.091 L83.298,34.351 L83.298,46.522 L99.471,37.262 L99.471,25.091 Z"/>
<path fill-rule="evenodd"  fill="rgb(195, 37, 37)"
 d="M-0.000,39.000 L23.000,39.000 L23.000,62.000 L-0.000,62.000 L-0.000,39.000 Z"/>
<path fill-rule="evenodd"  fill="rgb(255, 255, 255)"
 d="M10.847,57.321 C13.492,57.321 15.364,55.538 15.364,52.989 C15.364,50.529 13.606,48.745 11.172,48.745 C9.960,48.745 8.905,49.202 8.334,49.967 L8.299,49.967 L8.686,45.837 L14.643,45.837 L14.643,44.431 L7.385,44.431 L6.691,51.531 L8.176,51.531 C8.694,50.643 9.705,50.107 10.891,50.107 C12.578,50.107 13.782,51.329 13.782,53.033 C13.782,54.738 12.587,55.933 10.865,55.933 C9.345,55.933 8.193,55.002 8.053,53.648 L6.498,53.648 C6.629,55.810 8.422,57.321 10.847,57.321 Z"/>
</svg>